<svg width="499" height="384" viewBox="0 0 499 384" fill="none" xmlns="http://www.w3.org/2000/svg">
<path d="M135.514 0C161.772 0 184.905 5.62686 204.912 16.8806C225.231 28.1343 241.174 43.7645 252.74 63.7711C264.306 83.7777 270.089 106.91 270.089 133.169C270.089 152.55 266.495 172.088 259.305 191.782C252.115 211.164 240.705 232.108 225.075 254.616L136.451 383.565H58.1443L142.547 264.931L133.638 256.96C131.762 257.585 129.418 258.054 126.604 258.367C124.104 258.679 121.29 258.836 118.164 258.836C95.3441 258.836 75.0248 253.365 57.2065 242.424C39.7007 231.483 25.7898 216.634 15.4739 197.878C5.15796 178.809 0 157.24 0 133.169C0 106.91 5.78317 83.7777 17.3495 63.7711C28.9158 43.7645 44.8586 28.1343 65.1778 16.8806C85.8097 5.62686 109.255 0 135.514 0ZM199.754 133.169C199.754 119.415 197.097 107.379 191.782 97.0634C186.468 86.7475 178.966 78.7761 169.275 73.1492C159.584 67.5224 148.33 64.7089 135.514 64.7089C122.384 64.7089 110.974 67.5224 101.284 73.1492C91.5928 78.7761 83.9341 86.7475 78.3072 97.0634C72.9929 107.067 70.3358 119.102 70.3358 133.169C70.3358 146.611 72.9929 158.49 78.3072 168.806C83.9341 178.809 91.4365 186.781 100.815 192.72C110.505 198.347 121.759 201.16 134.576 201.16C147.705 201.16 159.115 198.347 168.806 192.72C178.497 186.781 185.999 178.809 191.313 168.806C196.94 158.49 199.754 146.611 199.754 133.169Z" fill="#16CDFF"/>
<path d="M347.179 115.998V150.184H339.271V115.998H347.179Z" fill="white"/>
<path d="M373.396 115.998V150.184H366.465L362.351 134.643V150.184H355.74V115.998H362.351L366.784 131.391V115.998H373.396Z" fill="white"/>
<path d="M381.975 115.998H395.368V122.84H389.883V129.322H394.767V135.826H389.883V150.184H381.975V115.998Z" fill="white"/>
<path d="M410.596 115.998V150.184H402.688V115.998H410.596Z" fill="white"/>
<path d="M436.813 115.998V150.184H429.882L425.768 134.643V150.184H419.156V115.998H425.768L430.201 131.391V115.998H436.813Z" fill="white"/>
<path d="M453.3 115.998V150.184H445.392V115.998H453.3Z" fill="white"/>
<path d="M477.788 115.998V122.84H473.092V150.184H465.184V122.84H460.507V115.998H477.788Z" fill="white"/>
<path d="M484.977 115.998H497.186L498.163 122.84H492.885V129.322H498.163L498.689 132.359L498.163 135.73L492.885 135.826V143.343H498.163L497.374 150.184H484.977V115.998Z" fill="white"/>
<path d="M294.932 171.055C306.578 195.632 350.067 201.159 361.275 201.159C374.403 201.159 385.814 198.348 395.504 192.721C403.567 187.779 410.116 181.428 415.149 173.672H491.612C490.082 179.694 488.213 185.731 486.004 191.783C478.814 211.164 467.405 232.109 451.775 254.616L363.15 383.566H284.844L369.245 264.933L360.336 256.959C358.461 257.584 356.116 258.053 353.303 258.365C350.802 258.678 347.988 258.836 344.863 258.837C322.044 258.836 301.724 253.364 283.906 242.423C276.655 237.971 272.98 233.469 271.29 230.937C271.29 230.937 282.92 211.951 287.081 201.159C291.243 190.368 294.932 171.055 294.932 171.055Z" fill="#B6ECFB"/>
<path d="M362.212 0.000976562C388.47 0.00102054 411.604 5.62826 431.61 16.8818C451.929 28.1355 467.871 43.7665 479.437 63.7729C484.68 72.8415 488.73 82.5531 491.597 92.9062H416.141C411.041 84.5822 404.321 77.9955 395.975 73.1494C386.284 67.5226 375.028 64.7082 362.212 64.7082C349.083 64.7083 334.482 66.1011 324.791 71.7277C313.013 75.8817 296.868 92.3391 295.708 93.1272C295.693 93.0938 285.494 70.0185 278.979 59.3707C272.46 48.7154 263.887 37.8308 263.887 37.8308C272.048 29.6797 281.378 22.6963 291.876 16.8818C312.507 5.62834 335.954 0.00115118 362.212 0.000976562Z" fill="#B6ECFB"/>
</svg>
